<svg xmlns="http://www.w3.org/2000/svg" xmlns:xlink="http://www.w3.org/1999/xlink" width="200" zoomAndPan="magnify" viewBox="0 0 150 149.999998" height="200" preserveAspectRatio="xMidYMid meet" version="1.0"><defs><clipPath id="91643d1008"><path d="M 15 27.824219 L 135 27.824219 L 135 122.324219 L 15 122.324219 Z M 15 27.824219 " clip-rule="nonzero"/></clipPath></defs><g clip-path="url(#91643d1008)"><path fill="#d3c4b4" d="M 118.113281 36.441406 L 31.886719 36.441406 L 72.386719 67.644531 C 73.925781 68.832031 76.074219 68.832031 77.613281 67.644531 Z M 23.570312 40.867188 L 23.570312 113.707031 L 126.429688 113.707031 L 126.429688 40.867188 L 82.839844 74.449219 C 78.21875 78.011719 71.78125 78.011719 67.160156 74.449219 Z M 15 36.441406 C 15 31.699219 18.835938 27.855469 23.570312 27.855469 L 126.429688 27.855469 C 131.164062 27.855469 135 31.699219 135 36.441406 L 135 113.707031 C 135 118.449219 131.164062 122.292969 126.429688 122.292969 L 23.570312 122.292969 C 18.835938 122.292969 15 118.449219 15 113.707031 Z M 15 36.441406 " fill-opacity="1" fill-rule="evenodd"/></g></svg>