<svg xmlns="http://www.w3.org/2000/svg" xmlns:xlink="http://www.w3.org/1999/xlink" width="200" zoomAndPan="magnify" viewBox="0 0 150 149.999998" height="200" preserveAspectRatio="xMidYMid meet" version="1.0"><defs><clipPath id="780eaa0816"><path d="M 15 15.4375 L 135 15.4375 L 135 134.6875 L 15 134.6875 Z M 15 15.4375 " clip-rule="nonzero"/></clipPath></defs><g clip-path="url(#780eaa0816)"><path fill="#d3c4b4" d="M 75.027344 15.472656 C 41.867188 15.472656 15 42.273438 15 75.347656 C 15 105.050781 36.722656 129.726562 65.152344 134.390625 L 65.152344 93.800781 L 49.871094 93.800781 L 49.871094 76.019531 L 65.152344 76.019531 L 65.152344 63.113281 C 65.152344 49.117188 76.53125 39.628906 90.566406 39.628906 C 96.800781 39.628906 100.699219 40.5625 100.699219 40.5625 L 100.699219 55.492188 L 90.566406 55.492188 C 86.355469 55.492188 82.925781 58.914062 82.925781 63.113281 L 82.925781 76.019531 L 99.296875 76.019531 L 97.007812 93.800781 L 82.925781 93.800781 L 82.925781 134.648438 C 112.289062 130.761719 134.949219 105.671875 134.949219 75.347656 C 135 42.273438 108.132812 15.472656 75.027344 15.472656 Z M 75.027344 15.472656 " fill-opacity="1" fill-rule="nonzero"/></g></svg>