<svg xmlns="http://www.w3.org/2000/svg" xmlns:xlink="http://www.w3.org/1999/xlink" width="200" zoomAndPan="magnify" viewBox="0 0 150 149.999998" height="200" preserveAspectRatio="xMidYMid meet" version="1.0"><path fill="#d3c4b4" d="M 75 61.703125 C 67.675781 61.703125 61.703125 67.675781 61.703125 75 C 61.703125 82.324219 67.675781 88.296875 75 88.296875 C 82.324219 88.296875 88.296875 82.324219 88.296875 75 C 88.296875 67.675781 82.324219 61.703125 75 61.703125 Z M 75 61.703125 " fill-opacity="1" fill-rule="nonzero"/><path fill="#d3c4b4" d="M 92.871094 42.375 L 57.128906 42.375 C 49.027344 42.375 42.375 48.972656 42.375 57.128906 L 42.375 92.871094 C 42.375 100.972656 48.972656 107.625 57.128906 107.625 L 92.871094 107.625 C 100.972656 107.625 107.625 101.027344 107.625 92.871094 L 107.625 57.128906 C 107.570312 48.972656 100.972656 42.375 92.871094 42.375 Z M 75 95 C 63.933594 95 54.949219 86.011719 54.949219 74.949219 C 54.949219 63.882812 63.933594 54.894531 75 54.894531 C 86.066406 54.894531 95.050781 63.882812 95.050781 74.949219 C 95 86.011719 86.011719 95 75 95 Z M 96.453125 58.273438 C 93.804688 58.273438 91.625 56.089844 91.625 53.441406 C 91.625 50.792969 93.804688 48.609375 96.453125 48.609375 C 99.105469 48.609375 101.285156 50.792969 101.285156 53.441406 C 101.285156 56.144531 99.15625 58.273438 96.453125 58.273438 Z M 96.453125 58.273438 " fill-opacity="1" fill-rule="nonzero"/><path fill="#d3c4b4" d="M 75 15 C 41.855469 15 15 41.855469 15 75 C 15 108.144531 41.855469 135 75 135 C 108.144531 135 135 108.144531 135 75 C 134.949219 41.855469 108.089844 15 75 15 Z M 114.324219 92.871094 C 114.324219 104.714844 104.664062 114.375 92.816406 114.375 L 57.128906 114.375 C 45.285156 114.375 35.625 104.714844 35.625 92.871094 L 35.625 57.128906 C 35.625 45.285156 45.285156 35.625 57.128906 35.625 L 92.871094 35.625 C 104.714844 35.625 114.375 45.285156 114.375 57.128906 L 114.375 92.871094 Z M 114.324219 92.871094 " fill-opacity="1" fill-rule="nonzero"/></svg>