<svg xmlns="http://www.w3.org/2000/svg" xmlns:xlink="http://www.w3.org/1999/xlink" width="200" zoomAndPan="magnify" viewBox="0 0 150 149.999998" height="200" preserveAspectRatio="xMidYMid meet" version="1.0"><path fill="#d3c4b4" d="M 115 135 L 35 135 C 34.34375 135 33.691406 134.964844 33.039062 134.902344 C 32.386719 134.835938 31.742188 134.742188 31.097656 134.613281 C 30.457031 134.484375 29.824219 134.324219 29.195312 134.132812 C 28.570312 133.945312 27.953125 133.722656 27.347656 133.472656 C 26.746094 133.222656 26.152344 132.941406 25.574219 132.632812 C 25 132.324219 24.4375 131.988281 23.894531 131.625 C 23.347656 131.257812 22.824219 130.871094 22.316406 130.453125 C 21.8125 130.039062 21.328125 129.597656 20.863281 129.136719 C 20.402344 128.671875 19.960938 128.1875 19.546875 127.683594 C 19.128906 127.175781 18.742188 126.652344 18.375 126.105469 C 18.011719 125.5625 17.675781 125 17.367188 124.425781 C 17.058594 123.847656 16.777344 123.253906 16.527344 122.652344 C 16.277344 122.046875 16.054688 121.429688 15.867188 120.804688 C 15.675781 120.175781 15.515625 119.542969 15.386719 118.902344 C 15.257812 118.257812 15.164062 117.613281 15.097656 116.960938 C 15.035156 116.308594 15 115.65625 15 115 L 15 35 C 15 34.34375 15.035156 33.691406 15.097656 33.039062 C 15.164062 32.386719 15.257812 31.742188 15.386719 31.097656 C 15.515625 30.457031 15.675781 29.824219 15.867188 29.195312 C 16.054688 28.570312 16.277344 27.953125 16.527344 27.347656 C 16.777344 26.746094 17.058594 26.152344 17.367188 25.574219 C 17.675781 25 18.011719 24.4375 18.375 23.894531 C 18.742188 23.347656 19.128906 22.824219 19.546875 22.316406 C 19.960938 21.8125 20.402344 21.328125 20.863281 20.863281 C 21.328125 20.402344 21.8125 19.960938 22.316406 19.546875 C 22.824219 19.128906 23.347656 18.742188 23.894531 18.375 C 24.4375 18.011719 25 17.675781 25.574219 17.367188 C 26.152344 17.058594 26.746094 16.777344 27.347656 16.527344 C 27.953125 16.277344 28.570312 16.054688 29.195312 15.867188 C 29.824219 15.675781 30.457031 15.515625 31.097656 15.386719 C 31.742188 15.257812 32.386719 15.164062 33.039062 15.097656 C 33.691406 15.035156 34.34375 15 35 15 L 115 15 C 115.65625 15 116.308594 15.035156 116.960938 15.097656 C 117.613281 15.164062 118.257812 15.257812 118.902344 15.386719 C 119.542969 15.515625 120.175781 15.675781 120.804688 15.867188 C 121.429688 16.054688 122.046875 16.277344 122.652344 16.527344 C 123.253906 16.777344 123.847656 17.058594 124.425781 17.367188 C 125 17.675781 125.5625 18.011719 126.105469 18.375 C 126.652344 18.742188 127.175781 19.128906 127.683594 19.546875 C 128.1875 19.960938 128.671875 20.402344 129.136719 20.863281 C 129.597656 21.328125 130.039062 21.8125 130.453125 22.316406 C 130.871094 22.824219 131.257812 23.347656 131.625 23.894531 C 131.988281 24.4375 132.324219 25 132.632812 25.574219 C 132.941406 26.152344 133.222656 26.746094 133.472656 27.347656 C 133.722656 27.953125 133.945312 28.570312 134.132812 29.195312 C 134.324219 29.824219 134.484375 30.457031 134.613281 31.097656 C 134.742188 31.742188 134.835938 32.386719 134.902344 33.039062 C 134.964844 33.691406 135 34.34375 135 35 L 135 115 C 135 115.65625 134.964844 116.308594 134.902344 116.960938 C 134.835938 117.613281 134.742188 118.257812 134.613281 118.902344 C 134.484375 119.542969 134.324219 120.175781 134.132812 120.804688 C 133.945312 121.429688 133.722656 122.046875 133.472656 122.652344 C 133.222656 123.253906 132.941406 123.847656 132.632812 124.425781 C 132.324219 125 131.988281 125.5625 131.625 126.105469 C 131.257812 126.652344 130.871094 127.175781 130.453125 127.683594 C 130.039062 128.1875 129.597656 128.671875 129.136719 129.136719 C 128.671875 129.597656 128.1875 130.039062 127.683594 130.453125 C 127.175781 130.871094 126.652344 131.257812 126.105469 131.625 C 125.5625 131.988281 125 132.324219 124.425781 132.632812 C 123.847656 132.941406 123.253906 133.222656 122.652344 133.472656 C 122.046875 133.722656 121.429688 133.945312 120.804688 134.132812 C 120.175781 134.324219 119.542969 134.484375 118.902344 134.613281 C 118.257812 134.742188 117.613281 134.835938 116.960938 134.902344 C 116.308594 134.964844 115.65625 135 115 135 Z M 35 28.332031 C 34.5625 28.332031 34.128906 28.375 33.699219 28.460938 C 33.269531 28.546875 32.851562 28.671875 32.449219 28.839844 C 32.042969 29.007812 31.660156 29.214844 31.296875 29.457031 C 30.933594 29.699219 30.59375 29.976562 30.285156 30.285156 C 29.976562 30.59375 29.699219 30.933594 29.457031 31.296875 C 29.214844 31.660156 29.007812 32.042969 28.839844 32.449219 C 28.671875 32.851562 28.546875 33.269531 28.460938 33.699219 C 28.375 34.128906 28.332031 34.5625 28.332031 35 L 28.332031 115 C 28.332031 115.4375 28.375 115.871094 28.460938 116.300781 C 28.546875 116.730469 28.671875 117.148438 28.839844 117.550781 C 29.007812 117.957031 29.214844 118.339844 29.457031 118.703125 C 29.699219 119.066406 29.976562 119.40625 30.285156 119.714844 C 30.59375 120.023438 30.933594 120.300781 31.296875 120.542969 C 31.660156 120.785156 32.042969 120.992188 32.449219 121.160156 C 32.851562 121.328125 33.269531 121.453125 33.699219 121.539062 C 34.128906 121.625 34.5625 121.667969 35 121.667969 L 115 121.667969 C 115.4375 121.667969 115.871094 121.625 116.300781 121.539062 C 116.730469 121.453125 117.148438 121.328125 117.550781 121.160156 C 117.957031 120.992188 118.339844 120.785156 118.703125 120.542969 C 119.066406 120.300781 119.40625 120.023438 119.714844 119.714844 C 120.023438 119.40625 120.300781 119.066406 120.542969 118.703125 C 120.785156 118.339844 120.992188 117.957031 121.160156 117.550781 C 121.328125 117.148438 121.453125 116.730469 121.539062 116.300781 C 121.625 115.871094 121.667969 115.4375 121.667969 115 L 121.667969 35 C 121.667969 34.5625 121.625 34.128906 121.539062 33.699219 C 121.453125 33.269531 121.328125 32.851562 121.160156 32.449219 C 120.992188 32.042969 120.785156 31.660156 120.542969 31.296875 C 120.300781 30.933594 120.023438 30.59375 119.714844 30.285156 C 119.40625 29.976562 119.066406 29.699219 118.703125 29.457031 C 118.339844 29.214844 117.957031 29.007812 117.550781 28.839844 C 117.148438 28.671875 116.730469 28.546875 116.300781 28.460938 C 115.871094 28.375 115.4375 28.332031 115 28.332031 Z M 35 28.332031 " fill-opacity="1" fill-rule="nonzero"/><path fill="#d3c4b4" d="M 48.332031 108.332031 C 47.894531 108.332031 47.460938 108.289062 47.03125 108.207031 C 46.601562 108.121094 46.1875 107.992188 45.78125 107.824219 C 45.378906 107.660156 44.992188 107.453125 44.628906 107.210938 C 44.265625 106.964844 43.929688 106.691406 43.621094 106.378906 C 43.308594 106.070312 43.035156 105.734375 42.789062 105.371094 C 42.546875 105.007812 42.339844 104.621094 42.175781 104.21875 C 42.007812 103.8125 41.878906 103.398438 41.792969 102.96875 C 41.710938 102.539062 41.667969 102.105469 41.667969 101.667969 L 41.667969 68.332031 C 41.667969 67.894531 41.710938 67.460938 41.792969 67.03125 C 41.878906 66.601562 42.007812 66.1875 42.175781 65.78125 C 42.339844 65.378906 42.546875 64.992188 42.789062 64.628906 C 43.035156 64.265625 43.308594 63.929688 43.621094 63.621094 C 43.929688 63.308594 44.265625 63.035156 44.628906 62.789062 C 44.992188 62.546875 45.378906 62.339844 45.78125 62.175781 C 46.1875 62.007812 46.601562 61.878906 47.03125 61.792969 C 47.460938 61.710938 47.894531 61.667969 48.332031 61.667969 C 48.769531 61.667969 49.203125 61.710938 49.632812 61.792969 C 50.0625 61.878906 50.480469 62.007812 50.882812 62.175781 C 51.289062 62.339844 51.671875 62.546875 52.039062 62.789062 C 52.402344 63.035156 52.738281 63.308594 53.046875 63.621094 C 53.355469 63.929688 53.632812 64.265625 53.875 64.628906 C 54.121094 64.992188 54.324219 65.378906 54.492188 65.78125 C 54.660156 66.1875 54.785156 66.601562 54.871094 67.03125 C 54.957031 67.460938 55 67.894531 55 68.332031 L 55 101.667969 C 55 102.105469 54.957031 102.539062 54.871094 102.96875 C 54.785156 103.398438 54.660156 103.8125 54.492188 104.21875 C 54.324219 104.621094 54.121094 105.007812 53.875 105.371094 C 53.632812 105.734375 53.355469 106.070312 53.046875 106.378906 C 52.738281 106.691406 52.402344 106.964844 52.039062 107.210938 C 51.671875 107.453125 51.289062 107.660156 50.882812 107.824219 C 50.480469 107.992188 50.0625 108.121094 49.632812 108.207031 C 49.203125 108.289062 48.769531 108.332031 48.332031 108.332031 Z M 48.332031 108.332031 " fill-opacity="1" fill-rule="nonzero"/><path fill="#d3c4b4" d="M 48.332031 55.066406 C 47.894531 55.066406 47.460938 55.027344 47.03125 54.941406 C 46.601562 54.855469 46.183594 54.730469 45.777344 54.566406 C 45.371094 54.398438 44.984375 54.195312 44.621094 53.953125 C 44.253906 53.710938 43.917969 53.433594 43.605469 53.125 C 43.296875 52.816406 43.019531 52.480469 42.773438 52.117188 C 42.527344 51.753906 42.320312 51.367188 42.152344 50.964844 C 41.984375 50.558594 41.855469 50.140625 41.765625 49.714844 C 41.679688 49.285156 41.636719 48.847656 41.632812 48.410156 C 41.632812 47.972656 41.671875 47.539062 41.757812 47.109375 C 41.839844 46.675781 41.964844 46.257812 42.128906 45.855469 C 42.296875 45.449219 42.5 45.0625 42.742188 44.695312 C 42.984375 44.332031 43.257812 43.992188 43.566406 43.679688 C 43.875 43.371094 44.210938 43.089844 44.574219 42.84375 C 44.9375 42.601562 45.320312 42.390625 45.726562 42.222656 C 46.128906 42.050781 46.546875 41.921875 46.976562 41.835938 C 47.40625 41.746094 47.839844 41.703125 48.277344 41.699219 C 48.714844 41.699219 49.152344 41.738281 49.582031 41.820312 C 50.011719 41.902344 50.429688 42.027344 50.835938 42.191406 C 51.242188 42.359375 51.628906 42.5625 51.992188 42.800781 C 52.359375 43.042969 52.699219 43.316406 53.011719 43.625 C 53.324219 43.933594 53.601562 44.269531 53.847656 44.632812 C 54.09375 44.996094 54.300781 45.378906 54.472656 45.78125 C 54.644531 46.1875 54.773438 46.601562 54.863281 47.03125 C 54.949219 47.460938 54.996094 47.894531 55 48.332031 L 55 48.398438 C 55 48.835938 54.957031 49.269531 54.871094 49.699219 C 54.785156 50.128906 54.660156 50.546875 54.492188 50.953125 C 54.324219 51.355469 54.121094 51.738281 53.875 52.105469 C 53.632812 52.46875 53.355469 52.804688 53.046875 53.113281 C 52.738281 53.421875 52.402344 53.699219 52.039062 53.941406 C 51.671875 54.1875 51.289062 54.390625 50.882812 54.558594 C 50.480469 54.726562 50.0625 54.851562 49.632812 54.9375 C 49.203125 55.023438 48.769531 55.066406 48.332031 55.066406 Z M 48.332031 55.066406 " fill-opacity="1" fill-rule="nonzero"/><path fill="#d3c4b4" d="M 75 108.332031 C 74.5625 108.332031 74.128906 108.289062 73.699219 108.207031 C 73.269531 108.121094 72.851562 107.992188 72.449219 107.824219 C 72.042969 107.660156 71.660156 107.453125 71.296875 107.210938 C 70.933594 106.964844 70.59375 106.691406 70.285156 106.378906 C 69.976562 106.070312 69.699219 105.734375 69.457031 105.371094 C 69.214844 105.007812 69.007812 104.621094 68.839844 104.21875 C 68.671875 103.8125 68.546875 103.398438 68.460938 102.96875 C 68.375 102.539062 68.332031 102.105469 68.332031 101.667969 L 68.332031 68.332031 C 68.332031 67.894531 68.375 67.460938 68.460938 67.03125 C 68.546875 66.601562 68.671875 66.1875 68.839844 65.78125 C 69.007812 65.378906 69.214844 64.992188 69.457031 64.628906 C 69.699219 64.265625 69.976562 63.929688 70.285156 63.621094 C 70.59375 63.308594 70.933594 63.035156 71.296875 62.789062 C 71.660156 62.546875 72.042969 62.339844 72.449219 62.175781 C 72.851562 62.007812 73.269531 61.878906 73.699219 61.792969 C 74.128906 61.710938 74.5625 61.667969 75 61.667969 C 75.4375 61.667969 75.871094 61.710938 76.300781 61.792969 C 76.730469 61.878906 77.148438 62.007812 77.550781 62.175781 C 77.957031 62.339844 78.339844 62.546875 78.703125 62.789062 C 79.066406 63.035156 79.40625 63.308594 79.714844 63.621094 C 80.023438 63.929688 80.300781 64.265625 80.542969 64.628906 C 80.785156 64.992188 80.992188 65.378906 81.160156 65.78125 C 81.328125 66.1875 81.453125 66.601562 81.539062 67.03125 C 81.625 67.460938 81.667969 67.894531 81.667969 68.332031 L 81.667969 101.667969 C 81.667969 102.105469 81.625 102.539062 81.539062 102.96875 C 81.453125 103.398438 81.328125 103.8125 81.160156 104.21875 C 80.992188 104.621094 80.785156 105.007812 80.542969 105.371094 C 80.300781 105.734375 80.023438 106.070312 79.714844 106.378906 C 79.40625 106.691406 79.066406 106.964844 78.703125 107.210938 C 78.339844 107.453125 77.957031 107.660156 77.550781 107.824219 C 77.148438 107.992188 76.730469 108.121094 76.300781 108.207031 C 75.871094 108.289062 75.4375 108.332031 75 108.332031 Z M 75 108.332031 " fill-opacity="1" fill-rule="nonzero"/><path fill="#d3c4b4" d="M 101.667969 108.332031 C 101.230469 108.332031 100.796875 108.289062 100.367188 108.207031 C 99.9375 108.121094 99.519531 107.992188 99.117188 107.824219 C 98.710938 107.660156 98.328125 107.453125 97.960938 107.210938 C 97.597656 106.964844 97.261719 106.691406 96.953125 106.378906 C 96.644531 106.070312 96.367188 105.734375 96.125 105.371094 C 95.878906 105.007812 95.675781 104.621094 95.507812 104.21875 C 95.339844 103.8125 95.214844 103.398438 95.128906 102.96875 C 95.042969 102.539062 95 102.105469 95 101.667969 L 95 81.667969 C 95 81.230469 94.957031 80.796875 94.871094 80.367188 C 94.785156 79.9375 94.660156 79.519531 94.492188 79.117188 C 94.324219 78.710938 94.121094 78.328125 93.875 77.960938 C 93.632812 77.597656 93.355469 77.261719 93.046875 76.953125 C 92.738281 76.644531 92.402344 76.367188 92.039062 76.125 C 91.671875 75.878906 91.289062 75.675781 90.882812 75.507812 C 90.480469 75.339844 90.0625 75.214844 89.632812 75.128906 C 89.203125 75.042969 88.769531 75 88.332031 75 C 87.894531 75 87.460938 75.042969 87.03125 75.128906 C 86.601562 75.214844 86.1875 75.339844 85.78125 75.507812 C 85.378906 75.675781 84.992188 75.878906 84.628906 76.125 C 84.265625 76.367188 83.929688 76.644531 83.621094 76.953125 C 83.308594 77.261719 83.035156 77.597656 82.789062 77.960938 C 82.546875 78.328125 82.339844 78.710938 82.175781 79.117188 C 82.007812 79.519531 81.878906 79.9375 81.792969 80.367188 C 81.710938 80.796875 81.667969 81.230469 81.667969 81.667969 C 81.667969 82.105469 81.625 82.539062 81.539062 82.96875 C 81.453125 83.398438 81.328125 83.8125 81.160156 84.21875 C 80.992188 84.621094 80.785156 85.007812 80.542969 85.371094 C 80.300781 85.734375 80.023438 86.070312 79.714844 86.378906 C 79.40625 86.691406 79.066406 86.964844 78.703125 87.210938 C 78.339844 87.453125 77.957031 87.660156 77.550781 87.824219 C 77.148438 87.992188 76.730469 88.121094 76.300781 88.207031 C 75.871094 88.289062 75.4375 88.332031 75 88.332031 C 74.5625 88.332031 74.128906 88.289062 73.699219 88.207031 C 73.269531 88.121094 72.851562 87.992188 72.449219 87.824219 C 72.042969 87.660156 71.660156 87.453125 71.296875 87.210938 C 70.933594 86.964844 70.59375 86.691406 70.285156 86.378906 C 69.976562 86.070312 69.699219 85.734375 69.457031 85.371094 C 69.214844 85.007812 69.007812 84.621094 68.839844 84.21875 C 68.671875 83.8125 68.546875 83.398438 68.460938 82.96875 C 68.375 82.539062 68.332031 82.105469 68.332031 81.667969 C 68.332031 81.011719 68.367188 80.359375 68.429688 79.707031 C 68.492188 79.054688 68.589844 78.40625 68.71875 77.765625 C 68.84375 77.121094 69.003906 76.488281 69.195312 75.859375 C 69.382812 75.234375 69.605469 74.617188 69.855469 74.011719 C 70.105469 73.40625 70.386719 72.816406 70.695312 72.238281 C 71.003906 71.660156 71.339844 71.101562 71.703125 70.554688 C 72.066406 70.011719 72.457031 69.484375 72.875 68.980469 C 73.289062 68.472656 73.726562 67.988281 74.191406 67.523438 C 74.65625 67.0625 75.140625 66.621094 75.644531 66.207031 C 76.152344 65.789062 76.675781 65.402344 77.222656 65.039062 C 77.765625 64.671875 78.328125 64.335938 78.90625 64.027344 C 79.484375 63.71875 80.074219 63.441406 80.679688 63.1875 C 81.285156 62.9375 81.902344 62.71875 82.527344 62.527344 C 83.15625 62.335938 83.789062 62.179688 84.429688 62.050781 C 85.074219 61.921875 85.722656 61.828125 86.371094 61.761719 C 87.023438 61.699219 87.679688 61.667969 88.332031 61.667969 C 88.988281 61.667969 89.640625 61.699219 90.292969 61.761719 C 90.945312 61.828125 91.59375 61.921875 92.234375 62.050781 C 92.878906 62.179688 93.511719 62.335938 94.140625 62.527344 C 94.765625 62.71875 95.382812 62.9375 95.988281 63.1875 C 96.59375 63.441406 97.183594 63.71875 97.761719 64.027344 C 98.339844 64.335938 98.898438 64.671875 99.445312 65.039062 C 99.988281 65.402344 100.515625 65.789062 101.019531 66.207031 C 101.527344 66.621094 102.011719 67.0625 102.476562 67.523438 C 102.9375 67.988281 103.378906 68.472656 103.792969 68.980469 C 104.210938 69.484375 104.597656 70.011719 104.960938 70.554688 C 105.328125 71.101562 105.664062 71.660156 105.972656 72.238281 C 106.28125 72.816406 106.558594 73.40625 106.8125 74.011719 C 107.0625 74.617188 107.28125 75.234375 107.472656 75.859375 C 107.664062 76.488281 107.820312 77.121094 107.949219 77.765625 C 108.078125 78.40625 108.171875 79.054688 108.238281 79.707031 C 108.300781 80.359375 108.332031 81.011719 108.332031 81.667969 L 108.332031 101.667969 C 108.332031 102.105469 108.289062 102.539062 108.207031 102.96875 C 108.121094 103.398438 107.992188 103.8125 107.824219 104.21875 C 107.660156 104.621094 107.453125 105.007812 107.210938 105.371094 C 106.964844 105.734375 106.691406 106.070312 106.378906 106.378906 C 106.070312 106.691406 105.734375 106.964844 105.371094 107.210938 C 105.007812 107.453125 104.621094 107.660156 104.21875 107.824219 C 103.8125 107.992188 103.398438 108.121094 102.96875 108.207031 C 102.539062 108.289062 102.105469 108.332031 101.667969 108.332031 Z M 101.667969 108.332031 " fill-opacity="1" fill-rule="nonzero"/></svg>