<svg xmlns="http://www.w3.org/2000/svg" xmlns:xlink="http://www.w3.org/1999/xlink" width="200" zoomAndPan="magnify" viewBox="0 0 150 149.999998" height="200" preserveAspectRatio="xMidYMid meet" version="1.0"><path fill="#d3c4b4" d="M 135 75 C 135 108.148438 108.148438 135 75 135 C 41.851562 135 15 108.148438 15 75 C 15 41.851562 41.851562 15 75 15 C 108.148438 15 135 41.851562 135 75 Z M 64.019531 106.648438 C 90.628906 106.648438 105.179688 84.601562 105.179688 65.488281 C 105.179688 64.859375 105.179688 64.230469 105.148438 63.628906 C 107.96875 61.589844 110.429688 59.039062 112.378906 56.128906 C 109.800781 57.269531 107.011719 58.050781 104.070312 58.410156 C 107.070312 56.609375 109.351562 53.789062 110.429688 50.398438 C 107.640625 52.050781 104.550781 53.25 101.25 53.910156 C 98.609375 51.089844 94.859375 49.351562 90.691406 49.351562 C 82.710938 49.351562 76.230469 55.828125 76.230469 63.808594 C 76.230469 64.949219 76.351562 66.058594 76.621094 67.109375 C 64.589844 66.511719 53.941406 60.75 46.800781 51.988281 C 45.570312 54.121094 44.851562 56.609375 44.851562 59.25 C 44.851562 64.261719 47.398438 68.699219 51.300781 71.28125 C 48.929688 71.21875 46.710938 70.558594 44.761719 69.480469 C 44.761719 69.539062 44.761719 69.601562 44.761719 69.660156 C 44.761719 76.679688 49.738281 82.5 56.371094 83.851562 C 55.171875 84.179688 53.878906 84.359375 52.558594 84.359375 C 51.628906 84.359375 50.730469 84.269531 49.828125 84.089844 C 51.660156 89.851562 57 94.019531 63.328125 94.140625 C 58.378906 98.011719 52.140625 100.320312 45.359375 100.320312 C 44.191406 100.320312 43.050781 100.261719 41.910156 100.109375 C 48.238281 104.25 55.859375 106.648438 64.019531 106.648438 " fill-opacity="1" fill-rule="nonzero"/></svg>